<svg xmlns="http://www.w3.org/2000/svg" viewBox="0 0 590 300" width="590" height="300" role="img" aria-label="GitHub totals: 904 commits in the last year, 412 pull requests opened, 8 issues opened, 13 repositories contributed to, 4 stars on my repositories">
  <style>
    .bg { fill: #0d1117; } .panel { fill: #151b23; } .edge { stroke: #2a313c; }
    .fg { fill: #e6edf3; } .muted { fill: #9da7b3; } .dim { fill: #7d8590; }
    .accent { fill: #4c8dff; } .accent-line { stroke: #4c8dff; } .dim-line { stroke: #7d8590; }
    .stop-accent { stop-color: #4c8dff; } .stop-fg { stop-color: #e6edf3; }
    @media (prefers-color-scheme: light) {
    .bg { fill: #ffffff; } .panel { fill: #f6f8fa; } .edge { stroke: #d0d7de; }
    .fg { fill: #1f2328; } .muted { fill: #59636e; } .dim { fill: #6e7781; }
    .accent { fill: #0969da; } .accent-line { stroke: #0969da; } .dim-line { stroke: #6e7781; }
    .stop-accent { stop-color: #0969da; } .stop-fg { stop-color: #1f2328; }
    }
    text { font-family: ui-sans-serif, -apple-system, "Segoe UI", Helvetica, Arial, sans-serif; }
    .mono { font-family: ui-monospace, SFMono-Regular, "SF Mono", Menlo, Consolas, monospace; }
    
    .row { animation: row-in 0.6s cubic-bezier(0.22, 1, 0.36, 1) backwards; }
    @keyframes row-in { from { opacity: 0; transform: translateX(-8px); } }
    @media (prefers-reduced-motion: reduce) { .row { animation: none; } }
  </style>
  <rect class="panel edge" x="0.5" y="0.5" width="589" height="299" rx="16" stroke-width="1"/>
  
  <text class="fg" x="28" y="38" font-size="18" font-weight="700">Totals</text>
  <text class="dim" x="28" y="58" font-size="12.5">Counted by GitHub</text>
  
  <g class="row" style="animation-delay: 0.15s">
    <path class="accent-line" transform="translate(28 95)" d="M1.5 8h3.5M11 8h3.5M8 5a3 3 0 1 0 0 6 3 3 0 0 0 0-6z" fill="none" stroke-width="1.4" stroke-linecap="round" stroke-linejoin="round"/>
    <text x="56" y="108" font-size="14.5"><tspan class="fg" font-weight="700">904</tspan><tspan class="muted" dx="7">commits in the last year</tspan></text>
  </g>
  <g class="row" style="animation-delay: 0.23s">
    <path class="accent-line" transform="translate(28 131)" d="M4.5 5.5v5M4.5 2.5a1.5 1.5 0 1 0 0 3 1.5 1.5 0 0 0 0-3zM4.5 10.5a1.5 1.5 0 1 0 0 3 1.5 1.5 0 0 0 0-3zM11.5 10.5a1.5 1.5 0 1 0 0 3 1.5 1.5 0 0 0 0-3zM11.5 10.5V7a2 2 0 0 0-2-2H8" fill="none" stroke-width="1.4" stroke-linecap="round" stroke-linejoin="round"/>
    <text x="56" y="144" font-size="14.5"><tspan class="fg" font-weight="700">412</tspan><tspan class="muted" dx="7">pull requests opened</tspan></text>
  </g>
  <g class="row" style="animation-delay: 0.31s">
    <path class="accent-line" transform="translate(28 167)" d="M8 2a6 6 0 1 0 0 12A6 6 0 0 0 8 2zM8 5v3.5M8 11v.2" fill="none" stroke-width="1.4" stroke-linecap="round" stroke-linejoin="round"/>
    <text x="56" y="180" font-size="14.5"><tspan class="fg" font-weight="700">8</tspan><tspan class="muted" dx="7">issues opened</tspan></text>
  </g>
  <g class="row" style="animation-delay: 0.39s">
    <path class="accent-line" transform="translate(28 203)" d="M6 7.5a2.5 2.5 0 1 0 0-5 2.5 2.5 0 0 0 0 5zM1.5 13.5c0-2.5 2-4 4.5-4s4.5 1.5 4.5 4M11 3a2.3 2.3 0 0 1 0 4.4M12.5 9.8c1.300 0.600 2 1.900 2 3.700" fill="none" stroke-width="1.4" stroke-linecap="round" stroke-linejoin="round"/>
    <text x="56" y="216" font-size="14.5"><tspan class="fg" font-weight="700">13</tspan><tspan class="muted" dx="7">repositories contributed to</tspan></text>
  </g>
  <g class="row" style="animation-delay: 0.47s">
    <path class="accent-line" transform="translate(28 239)" d="M8 2l1.8 3.8 4.2.5-3.1 2.9.8 4.1L8 11.3l-3.7 2 .8-4.1L2 6.3l4.2-.5z" fill="none" stroke-width="1.4" stroke-linecap="round" stroke-linejoin="round"/>
    <text x="56" y="252" font-size="14.5"><tspan class="fg" font-weight="700">4</tspan><tspan class="muted" dx="7">stars on my repositories</tspan></text>
  </g>
</svg>
